<svg xmlns="http://www.w3.org/2000/svg" viewBox="0 0 616.18 298.02"><g data-name="Layer 2"><g data-name="Layer 1"><path fill="#fff" d="M574.2 48.6l41.98-1.47-41.58-1.45 19.86-12.07-21.76 10.03 10.97-21.31-13.15 19.65L569.05 0l-1.45 41.58-12.07-19.86 10.03 21.76-21.31-10.97 19.65 13.15-41.98 1.47 41.58 1.45-19.86 12.07 21.76-10.03-10.97 21.31 13.15-19.65 1.47 41.98 1.45-41.58 12.07 19.86-10.03-21.77 21.31 10.98L574.2 48.6z"/><text transform="translate(0 223.16)" font-size="190.92" font-family="Heebo-Bold,Heebo" font-weight="700" fill="#fff">CFsum</text><path d="M564.06 47.38c-181.69-43.26-269 41-269 41" fill="none" stroke="#fff" stroke-miterlimit="10" stroke-width="6"/></g></g></svg>