<svg xmlns="http://www.w3.org/2000/svg" viewBox="0 0 616.18 298.02"><defs><style>.cls-1,.cls-2{fill:#fff;}.cls-2{font-size:190.92px;font-family:Heebo-Bold, Heebo;font-weight:700;}.cls-3{fill:none;stroke:#fff;stroke-miterlimit:10;stroke-width:6px;}</style></defs><title>fcsum logo</title><g id="Layer_2" data-name="Layer 2"><g id="Layer_1-2" data-name="Layer 1"><polygon class="cls-1" points="574.2 48.6 616.18 47.13 574.6 45.68 594.46 33.61 572.7 43.64 583.67 22.33 570.52 41.98 569.05 0 567.6 41.58 555.53 21.72 565.56 43.48 544.25 32.51 563.9 45.66 521.92 47.13 563.5 48.58 543.64 60.65 565.4 50.62 554.43 71.93 567.58 52.28 569.05 94.26 570.5 52.68 582.57 72.54 572.54 50.77 593.85 61.75 574.2 48.6"/><text class="cls-2" transform="translate(0 223.16)">CFsum</text><path class="cls-3" d="M564.06,47.38c-181.69-43.26-269,41-269,41"/></g></g></svg>